# xmcd
#
# Track frame offsets: 
#        150
#        13505
#        28894
#        47645
#        61800
#        75276
#        90160
#        102364
#        118993
#        138364
#        151663
#        168691
#        181044
#        189459
#
# Disc length: 2677 seconds
#
# Revision: 0
# Processed by: cddbd v1.5.2PL0 Copyright (c) Steve Scherf et al.
# Submitted via: ExactAudioCopy v1.1
#
DISCID=a30a730e
DTITLE=Mark T. Small - Blacks, Whites and the Blues
DYEAR=2011
DGENRE=Acoustic Blues
TTITLE0=Trouble No More
TTITLE1=Boogie Woogie Guitar Man
TTITLE2=Little Red Rooster
TTITLE3=Hesitation Blues
TTITLE4=Bang Bang Bang Bang
TTITLE5=61 Highway
TTITLE6=Old Gray Mare
TTITLE7=Six White Horses
TTITLE8=The Thrill Is Gone
TTITLE9=A Few More Lines
TTITLE10=Catfish Blues
TTITLE11=Sweet Home Chicago
TTITLE12=A Georgia Camp Meeting
TTITLE13=Solace
EXTD=
EXTT0=
EXTT1=
EXTT2=
EXTT3=
EXTT4=
EXTT5=
EXTT6=
EXTT7=
EXTT8=
EXTT9=
EXTT10=
EXTT11=
EXTT12=
EXTT13=
PLAYORDER=
